<?xml version="1.0" encoding="UTF-8"?><svg id="Layer_1" xmlns="http://www.w3.org/2000/svg" viewBox="0 0 375.92 276.77"><defs><style>.cls-1,.cls-2{fill:#f9dd35;}.cls-3{fill:#ffffe3;}.cls-4{fill:#13a38b;}.cls-5{fill:#a51111;}.cls-2{stroke:#a51111;stroke-miterlimit:10;}</style></defs><path class="cls-4" d="m233.15,178.86c9.19-1.34,18.38-2.68,27.57-4.02,1.98-.29,4.05-.57,5.96.03,2.2.69,3.86,2.44,5.61,3.94,5.26,4.5,12.1,7.11,19.02,7.27,6.6.15,13.66-1.77,19.53,1.25,3.07,1.58,5.38,4.35,7.1,7.34,5.68,9.86,5.56,21.91,4.99,33.28-.24,4.67-.48,9.59,1.62,13.78,1.44,2.87,3.85,5.12,6.35,7.12,8.13,6.5,47,3.85,47,3.85l-2.98-12.84s-31.02,3.35-33.78-4.24-2.9-25.03-3.73-33.08c-.64-6.19-1.92-12.45-5.08-17.81-3.16-5.36-8.44-9.74-14.61-10.57-4.22-.57-8.48.52-12.74.46-16.85-.24-30.35-17.97-47.11-16.18-4.41.47-8.55,2.31-12.6,4.12-6.77,3.02-15.57,6.77-22.34,9.79l10.2,6.52Z"/><polygon class="cls-5" points="202.77 166.35 279.78 184.14 324.46 112.65 235.37 93.63 202.77 166.35"/><polygon class="cls-5" points="123.22 193.59 198.3 165.26 179 90.24 89.88 116.04 123.22 193.59"/><polygon class="cls-5" points="276.78 187.55 168.15 235.42 110.77 202.68 198.94 169.01 276.78 187.55"/><polygon class="cls-5" points="332.82 198.86 206.41 276.77 174.8 238.09 280.69 188.5 332.82 198.86"/><path class="cls-4" d="m146.76,215.42c-9.19,1.34-18.38,2.68-27.57,4.02-1.98.29-4.05.57-5.96-.03-2.2-.69-3.86-2.44-5.61-3.94-5.26-4.5-12.1-7.11-19.02-7.27-6.6-.15-13.66,1.77-19.53-1.25-3.07-1.58-5.38-4.35-7.1-7.34-5.68-9.86-5.56-21.91-4.99-33.28.24-4.67.48-9.59-1.62-13.78-1.44-2.87-3.85-5.12-6.35-7.12-8.13-6.5-47-3.85-47-3.85l2.98,12.84s31.02-3.35,33.78,4.24,2.9,25.03,3.73,33.08c.64,6.19,1.92,12.45,5.08,17.81s8.44,9.74,14.61,10.57c4.22.57,8.48-.52,12.74-.46,16.85.24,30.35,17.97,47.11,16.18,4.41-.47,8.55-2.31,12.6-4.12,6.77-3.02,15.57-6.77,22.34-9.79l-10.2-6.52Z"/><path class="cls-2" d="m201.21,106.91l8.28,16.78c1.21,2.45,3.54,4.14,6.24,4.53l18.52,2.69c6.8.99,9.51,9.34,4.59,14.14l-13.4,13.06c-1.95,1.9-2.84,4.65-2.38,7.34l3.16,18.44c1.16,6.77-5.94,11.93-12.02,8.74l-16.56-8.71c-2.41-1.27-5.3-1.27-7.71,0l-16.56,8.71c-6.08,3.2-13.19-1.97-12.02-8.74l3.16-18.44c.46-2.69-.43-5.43-2.38-7.34l-13.4-13.06c-4.92-4.79-2.2-13.15,4.59-14.14l18.52-2.69c2.7-.39,5.03-2.09,6.24-4.53l8.28-16.78c3.04-6.16,11.82-6.16,14.86,0Z"/><polygon class="cls-3" points="233.1 106.39 246.48 80.87 258.62 93.01 233.1 106.39"/><polygon class="cls-4" points="212.67 93.63 206.6 74.16 218.75 74.16 212.67 93.63"/><polygon class="cls-1" points="231.61 116.33 251.09 110.25 251.09 122.4 231.61 116.33"/><polygon class="cls-1" points="156.32 172.46 138.23 163.03 136.08 174.99 156.32 172.46"/><polygon class="cls-3" points="168.74 201.09 159.32 219.18 171.27 221.33 168.74 201.09"/><polygon class="cls-5" points="167.37 234.88 104.17 199.11 45.53 133.24 134.23 169.01 167.37 234.88"/><polygon class="cls-3" points="245.86 44.26 155.46 116.33 130.05 76.52 220.45 4.45 245.86 44.26"/><path class="cls-3" d="m219.26.04c-.43-.16-.73.26-1.21.21-.49-.05-1.1.26-1.61.13-.47-.12-.82.54-1.26.09,0,0-.12.11-.18.16-.16.12-.3.31-.53.27-.78-.15-1.52.08-2.23.34-.55.2-1.15-.08-1.66.26-.45-.33-.86.02-1.29.07-.57.06-1.1.31-1.68.37-.26.03-.23-.1-.2-.26-.3.08-.47.54-.65.43-.31-.19-.5.02-.75.03-.79.04-1.54.29-2.3.43-.31.06-.64.14-.94.11-.44-.05-.83.27-1.28.12-.04-.01-.13.1-.19.17-.06.07-.13.19-.2.15-.35-.22-.65.05-.97.09-.54.08-1.11-.08-1.61.07-.64.19-1.36,0-1.93.45-.03.02-.09.02-.13.02-.8-.03-1.58.04-2.31.42-.07.04-.19.05-.26.02-.34-.16-.7.34-1.03-.03-.26.33-.63.1-.95.17-.56.12-1.07.41-1.65.46-.26.02-.36,0-.22-.29-.37.08-.55.75-1.02.25,0,0-.12.07-.17.12-.09.1-.2.09-.32.12-.76.19-1.61-.11-2.3.43-.04.03-.12.02-.17.02-.98-.14-1.89.21-2.81.46-.33.09-.75-.23-1,.2,0,0-.06-.01-.08-.03-.16-.18-.35-.03-.51-.05-.62-.09-1.19.42-1.82.12-.12-.06-.18.06-.24.14-.13.15-1.15.41-1.31.35-.03-.01-.05-.04-.06-.06-.1-.13-.2-.1-.3,0-.13.12-.29.12-.45.14-.51.08-1.03.1-1.48.42-.04.03-.14.07-.16.05-.37-.39-.77.17-1.18-.02-.1-.05-.44-.06-.66.09-.39.26-.91.13-1.31.41-.04.03-.14-.05-.21-.05-.31,0-.71-.06-.9.04-.6.35-1.26.12-1.88.32-.44.14-.99-.11-1.43.25-.08.07-.23.04-.34.07-.72.24-1.56-.11-2.21.48-.09.08-.23.04-.34-.02-.08-.04-.18-.1-.24-.02-.31.39-.74.08-1.12.19-.3.09-.7.03-1.02.17-.33.14-.75-.23-1,.21-.05-.03-.11-.05-.14-.09-.12-.2-.23-.16-.39-.04-.22.16-.42.47-.75.17-.02-.02-.08.01-.12.02-.64.19-1.3.26-1.96.33-.29.03-.59.17-.89.02-.31.59-1.05,0-1.39.51,0,.01-.09,0-.12-.02-.22-.16-.39-.03-.56.09-.12.08-.23.22-.39.2-.52-.07-1.03,0-1.54.12-.61.14-1.24.24-1.86.21-.39-.02-.69.06-.99.26-.05.03-.11.04-.17.05-.72.09-1.46.08-2.16.33-.08.03-.14-.03-.19-.08-.2-.19-.34-.09-.48.08-.18.21-.35.43-.65.14-.07-.07-.17-.05-.24.03-.14.16-.31.13-.49.14-.47.03-.95.05-1.41.11-.55.08-.77.77-1.35.91-.08.02-.14.19-.28.17-.23-.02-.32.13-.46.27-.3.32-.47.82-.89.96-.37.13-.6.35-.81.64-.07.09-.16.25-.23.25-.46-.03-.57.36-.79.61-.08.09-.13.23-.26.23-.37,0-.54.26-.73.5-.09.11-.18.28-.32.29-.44.04-.61.38-.84.66-.07.09-.16.25-.24.25-.43-.03-.54.35-.78.56-.12.11-.21.29-.35.33-.66.19-1.03.79-1.58,1.14-.66.43-1.26.97-1.88,1.47-.44.35-.96.67-1.32,1.12-.43.53-1.18.66-1.51,1.29,0,.01-.03.02-.04.02-.39-.04-.52.27-.72.5-.11.12-.22.28-.36.32-.63.16-.84.85-1.47,1.05-.35.11-.57.56-.97.78-.42.23-.75.67-1.17.98-.42.31-.91.6-1.24,1.06-.22.31-.68.36-.87.61-.4.51-1.05.68-1.42,1.2-.07.11-.17.24-.28.27-.71.22-1.1.87-1.68,1.26-.38.25-.75.58-1.1.91-.73.67-1.58,1.19-2.34,1.84-.29.25-.59.49-.86.75-.27.26-.67.28-.87.57-.32.48-.87.68-1.22,1.1-.24.28-.66.29-.88.56-.53.64-1.33.98-1.82,1.66-.02.03-.07.05-.11.08-.82.63-1.72,1.15-2.47,1.89-.42.42-.86.85-1.41,1.13-.41.21-.76.5-1.08.82-.38.38-.8.73-1.25,1.04-.51.36-1.02.73-1.52,1.11-.43.33-.68.83-1.2,1.08-.79.38-1.39,1.04-2.06,1.59-.3.25-.52.64-.86.82-.62.33-1.24.64-1.66,1.24-.15.21-.38.37-.6.52-.89.62-1.83,1.18-2.56,2-.23.26-.48.49-.82.65-.27.12-.6.26-.77.47-.56.68-1.38,1.07-1.9,1.78-.1.13-.24.18-.4.24-.34.13-.76.26-.93.54-.5.82-1.42,1.17-2.01,1.87-.16.18-.54.21-.72.49-.02.03-.11.03-.17.02-.19-.02-.28.09-.38.24-.26.38-.51.8-.91,1.01-.5.26-1.01.48-1.36.93-.39.49-.93.79-1.38,1.2-.21.2-.4.37-.68.5-.31.14-.66.3-.91.54-.45.42-.81.9-1.36,1.26-.43.28-.85.67-1.27,1.02-.46.39-.93.76-1.37,1.18-.25.24-.63.44-.98.57-.18.07-.29.13-.4.29-.23.32-.45.75-.78.88-.45.18-.73.47-1,.81-.05.07-.14.14-.21.14-.38,0-.52.5-.93.45-.06,0-.09.07-.07.14.06.18-.08.24-.2.29-.23.1-.37.28-.53.46-.43.45-1.08.63-1.4,1.2-.02.03-.08.05-.12.04-.25-.03-.38.15-.5.31-.4.55-1.13.73-1.51,1.31-.03.05-.15.04-.2.09-.34.31-.79.45-1.14.76-.3.27-.46.72-.82.85-.68.23-1.05.83-1.57,1.23-.52.39-1.17.68-1.53,1.28-.01.02-.05.05-.07.05-.47,0-.62.38-.85.68-.07.09-.16.21-.26.23-.35.05-.51.32-.73.54-.4.41-1.01.57-1.32,1.09,0,.01-.02.02-.04.02-.69.18-1.11.79-1.59,1.21-.85.75-1.88,1.29-2.62,2.17-.02.02-.05.05-.07.05-.67.06-.81.93-1.49.97-.41.66-1.21.9-1.68,1.49-.06.08-.18.14-.12.25.06.13.18.07.27.03.35-.12.71-.15,1.09-.15.48,0,1.01.14,1.37-.35.07-.09.18-.12.28-.05.2.15.39.07.59.02.46-.1.92-.22,1.39-.25.31-.02.72-.21.85-.14.39.22.59.03.85-.16.06-.05.17-.06.25-.04.35.07.67-.07,1-.12.44-.07.86-.4,1.33-.09.04.03.15-.02.2-.06.15-.13.29-.11.45-.05.13.05.27.04.38-.05.62-.49,1.37-.32,2.06-.43.34-.05.8.19,1-.05.39-.49.93-.3,1.38-.42.64-.17,1.35-.05,1.99-.28.08-.03.14-.01.2.04.13.12.25.06.35-.04.14-.14.3-.19.48-.18.25,0,.49-.07.73-.09.32-.03.57-.28.86-.25.42.04.83,0,1.22-.08.46-.1.94-.13,1.37-.3.48-.18,1.09.08,1.48-.49.07.19-.12.28,0,.39.11.1.22.02.33-.02.33-.12.67-.21,1-.35.52-.23,1.1-.14,1.64-.24.51-.09,1.06.03,1.53-.31.05-.04.14-.05.21-.04.57.07,1.11-.13,1.67-.19.31-.03.77.03.9-.11.39-.41.96.02,1.3-.37.71.15,1.36-.33,2.07-.19.33.07.61-.03.86-.21.22-.17.42.14.63-.02.58-.44,1.3-.16,1.93-.34.43-.12.93.09,1.32-.29.06-.06.17-.1.25-.09.48.05.94-.17,1.42-.11.35.04.64-.04.87-.31.08-.1.19-.15.31-.07.18.13.37.09.55.02.52-.2,1.09-.06,1.62-.26.49-.19,1.05-.12,1.58-.23.82-.16,1.65-.54,2.53-.32.05.01.12-.03.16-.06.14-.12.29-.11.46-.05.19.07.35,0,.49-.12.11-.09.21-.23.37-.22.56.03,1.1-.17,1.67-.13.28.02.63.12.85-.01.32-.18.58-.33.99-.37.44-.05.9-.1,1.35-.16.5-.07,1.05-.08,1.51-.19.44-.11.91-.21,1.35-.29.59-.11,1.17-.48,1.81-.17.05.02.15-.02.2-.06.39-.32.89-.27,1.34-.37.27-.06.55-.15.85-.17.69-.04,1.44.24,2.05-.32.07-.06.19-.07.29-.08.55-.06,1.12-.08,1.66-.16.37-.05.87.11,1.18-.3.05-.06.19-.08.29-.07.38.03.74-.05,1.1-.13.33-.08.72.08,1-.23.37.29.61-.04.89-.17.04-.02.1-.04.13-.02.45.23.85-.16,1.3-.12.39.03.78-.21,1.21-.16.24.02.5.03.74.04.7.04,1.23-.58,1.95-.6.07,0,.15-.14.22-.21.33-.37.76-.61,1.18-.85.13-.07.27-.13.35-.26.5-.73,1.36-1.08,1.9-1.77.03-.04.1-.07.15-.1.43-.24.91-.36,1.25-.8.48-.63,1.26-.97,1.75-1.6.03-.03.07-.07.11-.07.48.04.63-.58,1.1-.55.03,0,.07-.08.11-.13.41-.43.68-.96,1.32-1.23.41-.17.75-.62,1.16-.92.7-.51,1.24-1.24,2.06-1.61.9-.41,1.33-1.37,2.23-1.8.34-.16.62-.52.94-.78.46-.37,1.02-.65,1.37-1.15.22-.32.63-.32.87-.56.3-.31.45-.77.99-.78.05,0,.1-.1.15-.16.41-.56,1.03-.88,1.52-1.35.34-.33,1.02-.25,1.14-.9,0-.01.05-.02.08-.03.3-.06.46-.31.65-.51.16-.17.37-.28.55-.41.47-.34.96-.69,1.38-1.07.5-.45,1.14-.76,1.51-1.35.03-.04.11-.08.15-.07.3.06.42-.16.56-.35.13-.18.22-.43.46-.45.31-.03.46-.23.63-.43.1-.12.21-.26.34-.34.7-.46,1.3-1.04,1.97-1.53.4-.3.82-.58,1.15-.96.06-.07.18-.11.28-.12.23,0,.33-.14.45-.31.14-.2.21-.54.46-.56.38-.02.52-.28.73-.5.4-.43.9-.77,1.36-1.1.33-.24.65-.45.91-.77.04-.04.09-.11.14-.1.42.03.56-.33.79-.56.17-.18.32-.4.62-.35.12.02.17-.08.23-.18.21-.35.4-.72.9-.77.09,0,.19-.13.26-.22.39-.53,1.05-.76,1.44-1.3.03-.05.14-.08.2-.07.29.07.37-.13.5-.33.14-.21.25-.5.56-.51.24-.01.36-.15.49-.33.16-.23.29-.5.6-.55.21-.04.33-.17.46-.31.22-.25.34-.65.81-.57.05,0,.14-.1.18-.18.34-.63,1.11-.77,1.5-1.34.76-.03.86-.94,1.58-1.14.37-.1.71-.6,1.09-.91.67-.54,1.28-1.15,2.02-1.61.4-.25.66-.71,1.18-.8.28-.77,1.13-.91,1.63-1.46.56-.63,1.37-.96,1.97-1.6.33-.35.77-.65,1.17-.94.61-.44,1.17-.94,1.75-1.41.83-.67,1.7-1.28,2.51-1.98.33-.29.7-.58,1.06-.87.09-.07.21-.12.32-.14.14-.03.23-.09.32-.21.41-.56.98-.99,1.55-1.32.54-.31.83-1,1.54-1.04.03,0,.06-.06.08-.1.4-.75,1.15-1.11,1.78-1.6.51-.4,1.09-.71,1.56-1.18.3-.3.53-.68.92-.88.42-.22.81-.47,1.15-.81.26-.26.49-.59.8-.76.95-.54,1.76-1.27,2.6-1.95.27-.22.46-.53.79-.71.65-.35,1.21-.82,1.71-1.36.39-.42.96-.64,1.29-1.15.03-.05.14-.03.2-.07.34-.18.78-.28.99-.55.51-.66,1.17-1.1,1.83-1.56.51-.36.99-.76,1.46-1.17.32-.28.55-.72.91-.89.64-.29,1.18-.67,1.64-1.19.4-.46.97-.73,1.38-1.21.23-.26.6-.47.95-.53.4-.07.39-.19.18-.53.33.11.5-.07.65-.25.29-.37.67-.62,1.07-.85.27-.15.52-.33.74-.55.18-.19.36-.4.67-.39.07,0,.19-.06.17-.11-.19-.35.17-.29.28-.43.34-.4.71-.73,1.22-.9.05-.02.09-.08.13-.12.07-.08.15-.16.1-.27-.06-.12-.19-.03-.27-.06Z"/><polygon class="cls-3" points="150.39 117.13 77.73 130.76 53.13 92.22 125.79 78.59 150.39 117.13"/></svg>