<?xml version="1.0" encoding="UTF-8"?><svg id="Layer_1" xmlns="http://www.w3.org/2000/svg" viewBox="0 0 230.64 222.25"><defs><style>.cls-1{fill:#f9dd35;}.cls-2{fill:#ffffe3;}.cls-3{fill:#13a38b;}</style></defs><polygon class="cls-1" points="98.51 222.25 9.81 186.48 9.81 79.17 98.51 114.94 98.51 222.25"/><polygon class="cls-1" points="215.36 196.72 102.57 222.25 102.57 109.46 215.36 83.93 215.36 196.72"/><polygon class="cls-2" points="143.77 212.92 158.97 209.48 155.83 110.36 141.4 110.36 143.77 212.92"/><polygon class="cls-3" points="228.85 108.45 89.09 123.16 89.09 65.75 228.85 51.04 228.85 108.45"/><path class="cls-3" d="m230.47,45.8c-.36-.32-.83-.41-1.25-.59-1.4-.6-2.81-1.17-4.21-1.77-3.94-1.7-7.86-3.42-11.8-5.12-4.53-1.96-9.07-3.91-13.6-5.86-4.47-1.92-8.92-3.87-13.41-5.76-4.48-1.89-8.92-3.88-13.4-5.77-4.45-1.88-8.87-3.82-13.3-5.73-3.97-1.71-7.96-3.4-11.93-5.1-.25-.11-.49-.23-.81-.38.21-.12.33-.19.45-.26h-3.91c.51.26,1.09.05,1.74.25-1.39.13-2.66.24-3.93.37-2.09.22-4.18.41-6.26.68-2.15.28-4.32.42-6.48.67-3.65.42-7.31.78-10.97,1.16-2.46.25-4.91.5-7.37.74-3.18.31-6.35.72-9.52,1.06-2.97.32-5.95.62-8.92.93-2.55.27-5.1.56-7.65.82-2.4.25-4.81.47-7.21.72-1.77.18-3.54.44-5.32.58-3.13.25-6.24.7-9.36.99-2.44.22-4.88.52-7.31.77-2.51.26-5.03.49-7.54.76-3.58.39-7.16.81-10.74,1.19-3.43.37-6.88.68-10.31,1.05-2.92.32-5.84.58-8.75.95-2.47.31-4.95.51-7.42.81-1.9.24-3.82.27-5.7.62-.18.03-.37,0-.55,0-.18-.02-.4-.15-.48.1-.06.21.16.31.32.4.61.31,1.21.66,1.84.92,1.86.75,3.67,1.6,5.51,2.38,1.63.7,3.27,1.4,4.92,2.05,2.76,1.09,5.44,2.37,8.19,3.48,2.56,1.03,5.07,2.2,7.63,3.24,1.96.79,3.92,1.59,5.84,2.46,1.6.73,3.21,1.47,4.82,2.17,1.4.61,2.81,1.24,4.26,1.77,1.78.64,3.47,1.51,5.23,2.21,2.48.99,4.9,2.13,7.37,3.14,1.69.7,3.37,1.45,5.06,2.16,1.24.53,2.51,1.01,3.75,1.56,1.81.81,3.65,1.57,5.48,2.32,1.73.71,3.46,1.45,5.16,2.22,2.62,1.19,5.34,2.13,7.94,3.38.93.45,1.9.6,2.98.42,2.49-.41,5.02-.55,7.53-.8,1.76-.17,3.5-.45,5.26-.59,2.48-.2,4.94-.58,7.43-.76,2.02-.15,4.02-.45,6.04-.66,2.14-.23,4.29-.38,6.43-.66,3.28-.43,6.58-.67,9.86-1.03,3.45-.39,6.9-.81,10.36-1.08,2.02-.16,4.02-.48,6.04-.66,2.18-.19,4.36-.41,6.54-.65,3.53-.38,7.05-.83,10.58-1.14,3.26-.28,6.5-.73,9.76-.99,2.44-.2,4.87-.6,7.31-.79,3.56-.28,7.08-.83,10.64-1.1,2.07-.16,4.13-.51,6.2-.67,3.28-.24,6.53-.74,9.81-1,2.44-.2,4.87-.53,7.31-.79,3.8-.4,7.61-.79,11.42-1.19.76-.08,1.5-.28,2.27-.17.11.02.24.02.29-.1.07-.15-.06-.23-.15-.32Z"/><polygon class="cls-2" points="36.51 197.25 48.99 202.28 55.76 105.02 41.72 100.37 36.51 197.25"/><polygon class="cls-3" points="83.37 120.66 0 87.1 0 31.52 83.37 65.08 83.37 120.66"/><polygon class="cls-2" points="72.83 16.82 143.57 55.6 157.2 53.96 92.08 15 72.83 16.82"/><polygon class="cls-2" points="157.2 58.58 143.77 60 146.11 117.16 158.97 115.8 157.2 58.58"/><polygon class="cls-2" points="41.68 41.88 171.64 19.72 183.99 25.17 57.21 48.78 41.68 41.88"/><polygon class="cls-2" points="37.96 46.8 46.93 50.42 44.52 105.02 36.51 101.8 37.96 46.8"/><path class="cls-2" d="m124.01,30.07c-3.92-1.03-4.77-5.36-1.54-7.8l13.92-10.51,13.92-10.51c3.23-2.44,8.13-1.16,8.81,2.31l2.95,14.93,2.95,14.93c.69,3.47-3.35,6.52-7.27,5.49l-16.87-4.42-16.87-4.42Z"/><path class="cls-1" d="m123.32,22.67s1.5-2.85,2.04-2.58,6.65,11.99,5.63,11.82c-1.18-.2-2.75-.72-3.58-.94s-4.1-8.3-4.1-8.3Z"/><path class="cls-2" d="m102.09,28.08c4.82.18,6.94,4.99,3.82,8.66l-13.44,15.82-13.44,15.82c-3.12,3.67-9.14,3.45-10.84-.4l-7.3-16.58-7.3-16.58c-1.7-3.85,2.21-8.44,7.02-8.26l20.75.76,20.75.76Z"/><path class="cls-1" d="m91.17,28c3.25,0,3.31.7.1,1.23l-13.82,2.32-13.82,2.32c-3.21.54-5.31-.62-6.55-1.5-.83-.59-.63-2.57.04-3.26.96-1,2.77-1.21,6.02-1.2l14.01.04,14.01.04Z"/><path class="cls-1" d="m97.75,27.92s-3.25-.14-3.86-.14c-.99,0,11.23,9.64,12.01,8.96,1.47-1.26-.39-3.19-.58-4.02s-7.57-4.8-7.57-4.8Z"/><path class="cls-2" d="m123.62,34.71l-11.02,1.89c-3.42.59-7.09-.13-9.02-1.77l-8.66-7.32c-2.57-2.17-1.17-5.13,3.02-6.38l14.47-4.31c4.49-1.34,10.01-.09,11.44,2.58l5.21,9.74c1.25,2.34-1.18,4.84-5.44,5.57Z"/></svg>